<?xml version="1.0" encoding="utf-8"?>
<!-- Generator: Adobe Illustrator 25.2.0, SVG Export Plug-In . SVG Version: 6.00 Build 0)  -->
<svg version="1.1" id="Layer_1" xmlns="http://www.w3.org/2000/svg" xmlns:xlink="http://www.w3.org/1999/xlink" x="0px" y="0px"
	 viewBox="0 0 422.2 422.2" style="enable-background:new 0 0 422.2 422.2;" xml:space="preserve">
<style type="text/css">
	.st0{fill:#020202;}
</style>
<path class="st0" d="M211.1,247c-49.3,0-89.6-40.3-89.6-89.6s40.3-89.6,89.6-89.6s89.6,40.3,89.6,89.6S260.4,247,211.1,247z
	 M211.1,79c-43.1,0-78.4,35.3-78.4,78.4c0,43.1,35.3,78.4,78.4,78.4c43.1,0,78.4-35.3,78.4-78.4S254.2,79,211.1,79z"/>
<path class="st0" d="M211.1,422.2C94.6,422.2,0,327.6,0,211.1S94.6,0,211.1,0s211.1,94.6,211.1,211.1S327.6,422.2,211.1,422.2z
	 M211.1,11.2c-110.3,0-199.9,89.6-199.9,199.9S100.8,411,211.1,411S411,321.4,411,211.1S321.4,11.2,211.1,11.2L211.1,11.2z"/>
<path class="st0" d="M70.6,359.5l-9.5-6.2c33.6-50.4,89.6-80.6,150.1-80.6c59.9,0,115.4,29.7,149,79l-9.5,6.2
	c-31.4-46.5-83.4-74.5-139.4-74.5C154.6,283.4,101.9,311.9,70.6,359.5L70.6,359.5z"/>
</svg>
