<?xml version="1.0" encoding="utf-8"?>
<!-- Generator: Adobe Illustrator 25.4.1, SVG Export Plug-In . SVG Version: 6.00 Build 0)  -->
<svg version="1.1" id="Layer_1" xmlns="http://www.w3.org/2000/svg" xmlns:xlink="http://www.w3.org/1999/xlink" x="0px" y="0px"
	 viewBox="0 0 549.1 546.5" style="enable-background:new 0 0 549.1 546.5;" xml:space="preserve">
<path d="M516.5,546.5c-8.4,0-16.8-3.4-23-9.5L9.7,55.4c-12.9-12.3-12.9-33,0-45.4c12.9-12.9,33-12.9,45.9,0l483.8,481
	c12.9,12.9,12.9,33,0,45.9C533.3,543.1,524.9,546.5,516.5,546.5L516.5,546.5z"/>
<path d="M32.6,546.5c-8.4,0-16.8-3.4-23-9.5c-12.9-12.9-12.3-33,0-45.9L493.5,9.5c12.9-12.9,33-12.3,45.9,0
	c12.9,12.9,12.3,33,0,45.9L55.6,537C48.9,543.1,41,546.5,32.6,546.5L32.6,546.5z"/>
</svg>
