<?xml version="1.0" encoding="utf-8"?>
<!-- Generator: Adobe Illustrator 25.4.1, SVG Export Plug-In . SVG Version: 6.00 Build 0)  -->
<svg version="1.1" id="Layer_1" xmlns="http://www.w3.org/2000/svg" xmlns:xlink="http://www.w3.org/1999/xlink" x="0px" y="0px"
	 viewBox="0 0 509.6 462.6" style="enable-background:new 0 0 509.6 462.6;" xml:space="preserve">
<symbol  id="a" viewBox="-7.7 -8 15.5 16.1">
	<path d="M0.3,0.8c-1,0-1.8,0.2-2.3,0.5c-0.5,0.3-0.8,0.9-0.8,1.5c0,0.6,0.2,1.1,0.6,1.5c0.4,0.3,1,0.5,1.7,0.5c0.9,0,1.7-0.3,2.3-1
		c0.6-0.7,1-1.5,1-2.5V0.8L0.3,0.8z M7.7-1.1v8.7H2.8V5.4C2.2,6.3,1.4,7,0.6,7.4C-0.2,7.8-1.2,8-2.4,8C-4,8-5.3,7.6-6.3,6.7
		c-1-0.9-1.5-2.1-1.5-3.6c0-1.8,0.6-3.1,1.8-3.9c1.2-0.8,3.2-1.3,5.8-1.3h2.9v-0.4c0-0.8-0.3-1.3-0.9-1.7C1.3-4.6,0.3-4.8-1-4.8
		c-1.1,0-2,0.1-2.9,0.3c-0.9,0.2-1.7,0.5-2.5,0.9v-3.7c1-0.2,2.1-0.4,3.1-0.6C-2.2-8-1.1-8-0.1-8c2.8,0,4.8,0.5,6,1.6
		C7.1-5.3,7.7-3.5,7.7-1.1L7.7-1.1z"/>
</symbol>
<symbol  id="b" viewBox="-8.2 -8 16.4 16.1">
	<path d="M8.2-0.1v1.4H-3.2c0.1,1.1,0.5,2,1.2,2.6c0.7,0.6,1.7,0.9,3,0.9c1,0,2.1-0.1,3.2-0.5C5.2,4,6.3,3.6,7.5,2.9v3.8
		C6.3,7.1,5.2,7.5,4,7.7C2.9,7.9,1.7,8,0.5,8c-2.8,0-4.9-0.7-6.5-2.1C-7.5,4.5-8.2,2.6-8.2,0c0-2.5,0.8-4.5,2.3-5.9
		C-4.4-7.3-2.4-8,0.3-8C2.7-8,4.6-7.3,6-5.9C7.5-4.4,8.2-2.5,8.2-0.1L8.2-0.1z M3.2-1.7c0-0.9-0.3-1.7-0.8-2.2
		C1.8-4.5,1.1-4.8,0.3-4.8c-0.9,0-1.7,0.3-2.3,0.8s-1,1.3-1.1,2.3H3.2z"/>
</symbol>
<symbol  id="c" viewBox="-5.7 -7.8 11.4 15.7">
	<path d="M5.7-3.3C5.2-3.5,4.8-3.6,4.4-3.7C4-3.8,3.6-3.9,3.1-3.9c-1.3,0-2.2,0.4-2.9,1.2c-0.7,0.8-1,2-1,3.5v7.1h-4.9V-7.5h4.9V-5
		c0.6-1,1.3-1.7,2.2-2.2c0.8-0.5,1.8-0.7,2.9-0.7c0.2,0,0.3,0,0.5,0c0.2,0,0.5,0,0.8,0.1L5.7-3.3z"/>
</symbol>
<symbol  id="d" viewBox="-7.7 -10.6 15.4 21.3">
	<path d="M7.7,1.3v9.3H2.8V3.5c0-1.3,0-2.3-0.1-2.8S2.5-0.1,2.4-0.3C2.2-0.7,1.9-0.9,1.6-1.1C1.3-1.3,0.9-1.3,0.5-1.3
		c-1,0-1.8,0.4-2.4,1.2c-0.6,0.8-0.9,1.9-0.9,3.3v7.5h-4.9v-21.3h4.9v8.2c0.7-0.9,1.5-1.5,2.3-2C0.4-4.8,1.3-5,2.3-5
		c1.8,0,3.1,0.5,4,1.6C7.2-2.3,7.7-0.8,7.7,1.3L7.7,1.3z"/>
</symbol>
<symbol  id="e" viewBox="-6.2 -9.8 12.4 19.7">
	<path d="M1.1-9.8v4.3h5V-2h-5v6.5c0,0.7,0.1,1.2,0.4,1.4s0.8,0.4,1.7,0.4h2.5v3.5H1.6c-1.9,0-3.3-0.4-4.1-1.2
		c-0.8-0.8-1.2-2.2-1.2-4.1V-2h-2.4v-3.5h2.4v-4.3H1.1z"/>
</symbol>
<symbol  id="f" viewBox="-8.4 -8 16.8 16.1">
	<path d="M0-4.5c-1.1,0-1.9,0.4-2.5,1.2C-3-2.6-3.3-1.5-3.3,0S-3,2.6-2.5,3.4C-1.9,4.2-1.1,4.5,0,4.5c1.1,0,1.9-0.4,2.4-1.2
		C3,2.6,3.3,1.5,3.3,0S3-2.6,2.5-3.4C1.9-4.1,1.1-4.5,0-4.5z M0-8c2.6,0,4.7,0.7,6.2,2.1C7.7-4.5,8.4-2.5,8.4,0
		c0,2.5-0.7,4.5-2.2,5.9C4.7,7.3,2.7,8,0,8c-2.6,0-4.7-0.7-6.2-2.1C-7.7,4.5-8.4,2.5-8.4,0c0-2.5,0.7-4.5,2.2-5.9
		C-4.7-7.3-2.6-8,0-8z"/>
</symbol>
<symbol  id="g" viewBox="-7.7 -7.8 15.4 15.7">
	<path d="M7.7-1.5v9.3H2.8V0.7c0-1.3,0-2.2-0.1-2.7S2.5-2.9,2.4-3.1C2.2-3.5,1.9-3.7,1.6-3.9C1.3-4.1,0.9-4.1,0.5-4.1
		c-1,0-1.8,0.4-2.4,1.2c-0.6,0.8-0.9,1.9-0.9,3.3v7.5h-4.9V-7.5h4.9v2.2c0.7-0.9,1.5-1.5,2.3-2c0.8-0.4,1.8-0.6,2.8-0.6
		c1.8,0,3.1,0.5,4,1.6C7.2-5.1,7.7-3.5,7.7-1.5L7.7-1.5z"/>
</symbol>
<path d="M509.6,0H275.5v263.8h234.1V0z M0,0v160.2h234.1l0-160.2L0,0z M234.1,198.8H0v263.8h234.1V198.8z M509.6,302.4H275.5v160.2
	h234.1V302.4z"/>
<g>
	<defs>
		<rect id="SVGID_1_" x="492.2" y="595.3" width="700" height="700"/>
	</defs>
	<clipPath id="SVGID_00000132766934590132933860000001949985253086981512_">
		<use xlink:href="#SVGID_1_"  style="overflow:visible;"/>
	</clipPath>
	<g style="clip-path:url(#SVGID_00000132766934590132933860000001949985253086981512_);">
		
			<use xlink:href="#a"  width="15.5" height="16.1" x="-7.7" y="-8" transform="matrix(1 0 0 1 501.1165 587.6325)" style="overflow:visible;"/>
	</g>
</g>
<g>
	<defs>
		<rect id="SVGID_00000164491758561315670030000001845535367650407300_" x="511.1" y="595.3" width="700" height="700"/>
	</defs>
	<clipPath id="SVGID_00000144323171754838615860000008546502741223138736_">
		<use xlink:href="#SVGID_00000164491758561315670030000001845535367650407300_"  style="overflow:visible;"/>
	</clipPath>
	<g style="clip-path:url(#SVGID_00000144323171754838615860000008546502741223138736_);">
		
			<use xlink:href="#g"  width="15.4" height="15.7" x="-7.7" y="-7.8" transform="matrix(1 0 0 1 521.1204 587.4374)" style="overflow:visible;"/>
	</g>
</g>
<g>
	<defs>
		<rect id="SVGID_00000020362658792958633410000007258228145352180864_" x="-13" y="623.3" width="700" height="700"/>
	</defs>
	<clipPath id="SVGID_00000076576686849847242730000004798288385721179570_">
		<use xlink:href="#SVGID_00000020362658792958633410000007258228145352180864_"  style="overflow:visible;"/>
	</clipPath>
	<g style="clip-path:url(#SVGID_00000076576686849847242730000004798288385721179570_);">
		
			<use xlink:href="#c"  width="11.4" height="15.7" x="-5.7" y="-7.8" transform="matrix(1 0 0 1 -4.9698 615.4371)" style="overflow:visible;"/>
	</g>
</g>
<g>
	<defs>
		<rect id="SVGID_00000082331591515588610060000010186186683102210718_" x="59" y="623.3" width="700" height="700"/>
	</defs>
	<clipPath id="SVGID_00000089542267632150018060000013235370923194608535_">
		<use xlink:href="#SVGID_00000082331591515588610060000010186186683102210718_"  style="overflow:visible;"/>
	</clipPath>
	<g style="clip-path:url(#SVGID_00000089542267632150018060000013235370923194608535_);">
		
			<use xlink:href="#e"  width="12.4" height="19.7" x="-6.2" y="-9.8" transform="matrix(1 0 0 1 65.5149 613.4531)" style="overflow:visible;"/>
	</g>
</g>
<g>
	<defs>
		<rect id="SVGID_00000017503501514170262520000002052432199433383585_" x="72.3" y="623.3" width="700" height="700"/>
	</defs>
	<clipPath id="SVGID_00000020372536742205256070000012475038679340878226_">
		<use xlink:href="#SVGID_00000017503501514170262520000002052432199433383585_"  style="overflow:visible;"/>
	</clipPath>
	<g style="clip-path:url(#SVGID_00000020372536742205256070000012475038679340878226_);">
		
			<use xlink:href="#d"  width="15.4" height="21.3" x="-7.7" y="-10.6" transform="matrix(1 0 0 1 82.3899 612.6404)" style="overflow:visible;"/>
	</g>
</g>
<g>
	<defs>
		<rect id="SVGID_00000172442207651163563430000007129823675152427667_" x="92.3" y="623.3" width="700" height="700"/>
	</defs>
	<clipPath id="SVGID_00000157267689397104701280000012379743451865222039_">
		<use xlink:href="#SVGID_00000172442207651163563430000007129823675152427667_"  style="overflow:visible;"/>
	</clipPath>
	<g style="clip-path:url(#SVGID_00000157267689397104701280000012379743451865222039_);">
		
			<use xlink:href="#b"  width="16.4" height="16.1" x="-8.2" y="-8" transform="matrix(1 0 0 1 101.691 615.6326)" style="overflow:visible;"/>
	</g>
</g>
<g>
	<defs>
		<rect id="SVGID_00000098931043707502560930000005435302545273179817_" x="144.4" y="623.3" width="700" height="700"/>
	</defs>
	<clipPath id="SVGID_00000160171740319946732620000009379780064114858921_">
		<use xlink:href="#SVGID_00000098931043707502560930000005435302545273179817_"  style="overflow:visible;"/>
	</clipPath>
	<g style="clip-path:url(#SVGID_00000160171740319946732620000009379780064114858921_);">
		
			<use xlink:href="#f"  width="16.8" height="16.1" x="-8.4" y="-8" transform="matrix(1 0 0 1 154.0579 615.632)" style="overflow:visible;"/>
	</g>
</g>
<g>
	<defs>
		<rect id="SVGID_00000086688508895267152490000015396874285149841327_" x="183.6" y="623.3" width="700" height="700"/>
	</defs>
	<clipPath id="SVGID_00000168099945662607511070000009266156113143803311_">
		<use xlink:href="#SVGID_00000086688508895267152490000015396874285149841327_"  style="overflow:visible;"/>
	</clipPath>
	<g style="clip-path:url(#SVGID_00000168099945662607511070000009266156113143803311_);">
		
			<use xlink:href="#g"  width="15.4" height="15.7" x="-7.7" y="-7.8" transform="matrix(1 0 0 1 193.6672 615.4374)" style="overflow:visible;"/>
	</g>
</g>
<g>
	<defs>
		<rect id="SVGID_00000042701803259091959890000011254067547650667180_" x="233.8" y="623.3" width="700" height="700"/>
	</defs>
	<clipPath id="SVGID_00000071533820631095634000000013109687994479155843_">
		<use xlink:href="#SVGID_00000042701803259091959890000011254067547650667180_"  style="overflow:visible;"/>
	</clipPath>
	<g style="clip-path:url(#SVGID_00000071533820631095634000000013109687994479155843_);">
		
			<use xlink:href="#c"  width="11.4" height="15.7" x="-5.7" y="-7.8" transform="matrix(1 0 0 1 241.8622 615.4371)" style="overflow:visible;"/>
	</g>
</g>
<g>
	<defs>
		<rect id="SVGID_00000140730852654417912120000016306177966918237604_" x="247.6" y="623.3" width="700" height="700"/>
	</defs>
	<clipPath id="SVGID_00000057841797915694794230000005494023065926856115_">
		<use xlink:href="#SVGID_00000140730852654417912120000016306177966918237604_"  style="overflow:visible;"/>
	</clipPath>
	<g style="clip-path:url(#SVGID_00000057841797915694794230000005494023065926856115_);">
		
			<use xlink:href="#f"  width="16.8" height="16.1" x="-8.4" y="-8" transform="matrix(1 0 0 1 257.2375 615.632)" style="overflow:visible;"/>
	</g>
</g>
<g>
	<defs>
		<rect id="SVGID_00000011744699487728303160000000298248968447087014_" x="276.5" y="623.3" width="700" height="700"/>
	</defs>
	<clipPath id="SVGID_00000156572684599640518590000011879549029256301997_">
		<use xlink:href="#SVGID_00000011744699487728303160000000298248968447087014_"  style="overflow:visible;"/>
	</clipPath>
	<g style="clip-path:url(#SVGID_00000156572684599640518590000011879549029256301997_);">
		
			<use xlink:href="#b"  width="16.4" height="16.1" x="-8.2" y="-8" transform="matrix(1 0 0 1 285.8785 615.6326)" style="overflow:visible;"/>
	</g>
</g>
<g>
	<defs>
		<rect id="SVGID_00000072262284032252725590000002661766189572288183_" x="312" y="623.3" width="700" height="700"/>
	</defs>
	<clipPath id="SVGID_00000020394645721942581070000008809195808162360223_">
		<use xlink:href="#SVGID_00000072262284032252725590000002661766189572288183_"  style="overflow:visible;"/>
	</clipPath>
	<g style="clip-path:url(#SVGID_00000020394645721942581070000008809195808162360223_);">
		
			<use xlink:href="#e"  width="12.4" height="19.7" x="-6.2" y="-9.8" transform="matrix(1 0 0 1 318.6047 613.4531)" style="overflow:visible;"/>
	</g>
</g>
</svg>
