<?xml version="1.0" encoding="utf-8"?>
<!-- Generator: Adobe Illustrator 25.2.0, SVG Export Plug-In . SVG Version: 6.00 Build 0)  -->
<svg version="1.1" id="Layer_1" xmlns="http://www.w3.org/2000/svg" xmlns:xlink="http://www.w3.org/1999/xlink" x="0px" y="0px"
	 viewBox="0 0 336 248.6" style="enable-background:new 0 0 336 248.6;" xml:space="preserve">
<path d="M0,192.6l56,56h224l56-56H0z"/>
<path d="M130,69.2h-5.6c0-2.6,1-5.4,2.1-8.3c1.1-2.9,2.3-6.2,1.8-7.9c-0.6-2.5-3.1-6.1-5.5-9.5c-3.2-4.7-6.5-9.5-7-13.8
	c-0.4-4.4,2.4-9.2,5.2-13.8c2.1-3.5,4.6-7.8,4.1-9.7c-0.1-0.2-0.2-0.6-1.1-1.1l2.7-4.9c2,1.1,3.3,2.6,3.8,4.6
	c1.1,4.3-1.7,9-4.7,14.1c-2.2,3.7-4.7,7.9-4.4,10.4c0.3,2.9,3.3,7.3,6,11.2c2.8,4,5.4,7.8,6.3,11.3c0.9,3.5-0.6,7.4-2,11.3
	C130.9,65.2,130,67.6,130,69.2L130,69.2z"/>
<path d="M173.4,69.2h-5.6c0-2.6,1-5.4,2.1-8.3c1.1-2.9,2.3-6.2,1.8-7.9c-0.6-2.5-3.1-6.1-5.5-9.5c-3.2-4.7-6.5-9.5-7-13.8
	c-0.4-4.4,2.4-9.2,5.2-13.8c2.1-3.5,4.6-7.8,4.1-9.7c-0.1-0.2-0.2-0.6-1.1-1.1l2.7-4.9c2,1.1,3.3,2.6,3.8,4.6
	c1.1,4.3-1.7,9-4.7,14.1c-2.2,3.7-4.7,7.9-4.4,10.4c0.3,2.9,3.3,7.3,6,11.2c2.8,4,5.4,7.8,6.3,11.3c0.9,3.5-0.6,7.4-2,11.3
	C174.3,65.2,173.4,67.6,173.4,69.2L173.4,69.2z"/>
<path d="M216.1,69.2h-5.6c0-2.6,1-5.4,2.1-8.3c1.1-2.9,2.3-6.2,1.8-7.9c-0.6-2.5-3.1-6.1-5.5-9.5c-3.2-4.7-6.5-9.5-7-13.8
	c-0.4-4.4,2.4-9.2,5.2-13.8c2.1-3.5,4.6-7.8,4.1-9.7c-0.1-0.2-0.2-0.6-1.1-1.1l2.7-4.9c2,1.1,3.3,2.6,3.8,4.6
	c1.1,4.3-1.7,9-4.7,14.1c-2.2,3.7-4.7,7.9-4.4,10.4c0.3,2.9,3.3,7.3,6,11.2c2.8,4,5.4,7.8,6.3,11.3c0.9,3.5-0.6,7.4-2,11.3
	C217,65.2,216.1,67.6,216.1,69.2L216.1,69.2z"/>
<path d="M123,203.9c-4.6,0-10.4-0.8-14.4-2.8c-4.2,2.5-10.5,2.8-13.2,2.8c-4.6,0-9-0.7-12.4-1.9c-4,1.7-8.8,1.9-11.6,1.9
	c-4.9,0-11.2-0.9-15.1-3.3c-4.9,3-12.6,3.3-15.1,3.3c-2.9,0-10-0.3-14.2-3.3c-3.9-2.9-5.2-9.4-5.6-13.1c-0.7-6.6,0.1-15.1,3.6-19
	c2.6-2.9,7.5-4.3,10.9-5c-0.6-7.3,0.8-16.2,4.6-20c3.5-3.5,10.8-4.7,16.6-4.7c2.3,0,4.6,0.2,6.6,0.6c0.7-1.4,1.4-2.6,2.3-3.5
	c2.6-2.6,7.2-3.8,10.8-4.3c0.3-5.2,1.7-11,4.6-13.9c3.5-3.5,10.8-4.7,16.6-4.7c1.8,0,3.5,0.1,5.1,0.3c0.1-0.1,0.2-0.2,0.3-0.3
	c3.5-3.5,10.9-4.7,16.6-4.7c2.6,0,8.2,0.3,12.3,2.4c0,0,0-0.1,0-0.1c1.4-4.4,2.8-8.2,4.7-10.1c3.5-3.5,10.8-4.7,16.5-4.7
	c2.7,0,8.9,0.3,13.1,2.8c3.9-2.1,9.5-2.8,13.9-2.8c3.5,0,11.9,0.5,15.5,4.9c0.7,0.9,1.4,2,1.9,3.3c3.9-2,9.3-2.7,13.8-2.7
	c3.5,0,12,0.5,15.6,4.9c1.2,1.5,2.2,3.8,3,6.7c3.8,0.1,11.4,0.8,14.7,4.9c2.4,3,3.6,8.2,4,13c1.5-0.2,3-0.2,4.5-0.2
	c3.5,0,11.9,0.5,15.5,4.9c1.8,2.3,2.8,5.6,3.4,8.4c1.6-0.2,3.3-0.3,5-0.3c3.5,0,11.9,0.5,15.5,4.9c2.1,2.6,3.5,7.3,4,12.8
	c4,0.2,10.7,1.1,13.7,4.9c5.2,6.5,6,25.6-0.2,31.7c-3.9,3.9-11.9,4.3-15.2,4.3c-3.2,0-6.4-0.4-9.2-1c-6.2,1.6-15.3,1.1-20.9-1
	c-3.9,1.7-8.8,1.9-11.5,1.9c-4.6,0-9.1-0.7-12.4-2c-3.9,1.7-8.8,2-11.6,2c-3.8,0-7.6-0.5-10.6-1.4c-4.2,2.6-10.7,2.9-13.5,2.9
	c-5.1,0-11.7-1-15.6-3.6c-4.1,3.2-11.3,3.5-14.3,3.5c-4.7,0-9.1-0.7-12.5-2c-4,1.7-9,2-11.8,2c-4.8,0-10.8-0.8-14.8-3.1
	C132.1,203.6,125.8,203.9,123,203.9L123,203.9z M108.3,194.1l1.9,1.4c2.2,1.7,7.5,2.8,12.8,2.8c5,0,9.3-1,11.1-2.5l0.4-0.4l1.9-2.1
	l2,1.9c2.2,1.9,7.5,3,12.9,3c4.3,0,8.1-0.7,10.3-1.9l1.2-0.7l1.3,0.6c2.7,1.2,7.1,2,11.4,2c5.2,0,9.6-1.1,11.2-2.7
	c0.9-0.9,2.1-1.1,2.9-1.1c0.7,0,1.9,0.1,2.9,0.9c2.1,1.7,7.3,2.9,12.8,2.9c5,0,9.4-1,11.2-2.5l1.2-1l1.5,0.5
	c5.7,2,16.2,1.9,20.3-0.4l1.2-0.7l1.3,0.6c5.2,2.4,17,2.5,21.4,0.1l1.2-0.7l1.3,0.6c4.5,2,13.7,2.5,19.1,1l0.7-0.2l0.7,0.2
	c2.5,0.6,5.5,1,8.6,1c5.2,0,9.6-1,11.2-2.7c3.7-3.7,3.6-19.6-0.2-24.3c-1.1-1.4-5.1-2.9-11.2-2.9l-3.6,0.1l-0.1-2.8
	c-0.1-5.3-1.3-10.1-2.9-12.1c-1.1-1.4-5.1-2.9-11.2-2.9c-2.3,0-4.7,0.2-6.8,0.6l-3,0.6l-0.4-3c-0.4-3.8-1.4-6.9-2.6-8.4
	c-1.1-1.4-5.1-2.9-11.2-2.9c-2.3,0-4.6,0.2-6.6,0.6l-3.3,0.7l0-3.4c0-5.4-1.2-10.7-2.9-12.7c-1.1-1.4-5.1-2.8-11.2-2.8l-3.8,0.1
	l-0.4-2.4c-0.7-4.1-1.8-5.9-2.3-6.5c-1.1-1.4-5.1-2.9-11.2-2.9c-6.3,0-11.1,1.6-12.6,3.1c-0.1,0.1-0.2,0.3-0.4,0.5l-3.6,5.1
	l-1.4-6.1c-0.7-3.2-1.6-4.6-2.1-5.2c-1.1-1.4-5.1-2.9-11.2-2.9c-5.3,0-10.2,1.1-12.3,2.8l-1.9,1.5l-1.8-1.7c-1.7-1.6-6-2.6-11-2.6
	c-6.2,0-11.1,1.5-12.6,3.1c-1.1,1.1-2.5,5.5-3.3,7.9c-1.3,3.8-1.8,5.5-4.1,5.5h-1.3l-0.9-1.1c-1.1-1.4-5.1-2.9-11.2-2.9
	c-6.3,0-11.1,1.6-12.6,3.1c-0.1,0.1-0.3,0.4-0.6,0.9l-1,1.6l-1.9-0.4c-1.7-0.3-3.8-0.5-5.8-0.5c-6.3,0-11.1,1.5-12.6,3.1
	c-1.5,1.5-3,6.3-3.1,12.5l0,2.6l-2.6,0.2c-4.5,0.4-8.3,1.5-9.8,3c-0.4,0.4-1.1,1.4-1.8,3.6l-0.8,2.6l-2.6-0.8
	c-2.1-0.6-4.8-0.9-7.6-0.9c-6.3,0-11.1,1.5-12.6,3.1c-2.3,2.3-3.9,10.6-2.7,17.9l0.5,2.9l-2.9,0.3c-5.4,0.6-9,2.2-10.2,3.6
	c-1.7,1.9-3,7.9-2.2,14.7c0.6,5.4,2.2,8.3,3.3,9.2c1.9,1.3,6.1,2.2,10.9,2.2c5.8,0,11.2-1.3,13.2-3.2l2.1-2l2,2.2
	c2.3,1.9,7.6,3.1,13,3.1c4.2,0,8-0.7,10.2-1.9l1.2-0.6l1.2,0.6c2.7,1.2,6.9,1.9,11.3,1.9c5.1,0,9.5-1,11.2-2.6L108.3,194.1z"/>
<path d="M79.8,165.2c-0.4-17.6,16.8-18.1,22.4-18.3c3.2-0.1,7.2-0.2,9.8,2.3c1.5,1.4,2.3,3.5,2.3,6.1l-5.6,0.1
	c0-0.7-0.1-1.6-0.6-2.1c-0.9-0.9-3.7-0.8-5.8-0.8c-12.4,0.3-17.2,3.9-17,12.5L79.8,165.2z"/>
<path d="M186.4,163.1c-2-1.5-3.4-3.4-4.6-5c-1.9-2.6-3.2-4.2-5.5-4.7c-4-0.9-12.5,1-15.3,3.6l-3.7-4.2c4.5-4.1,14.9-6.1,20.3-4.8
	c4.4,1,6.7,4.1,8.8,6.9c1.1,1.5,2.2,2.9,3.5,3.9L186.4,163.1z"/>
<path d="M253.2,160.2c-2.2-4.8-13.1-11.4-18.5-12.9c-3.1-0.8-13.6,0.7-15,2.4l-5.5-0.5c0-1.1,0.4-2.7,2.3-4.1
	c4.3-3.3,16-4.2,19.6-3.2c6,1.6,19,8.9,22.2,16L253.2,160.2z"/>
<path d="M155.8,137.1c-8.6-5.3-15.2-5.4-22.7-0.5l-3.1-4.7c9.3-6.1,18.2-6,28.7,0.4L155.8,137.1z"/>
</svg>
