<?xml version="1.0" encoding="utf-8"?>
<!-- Generator: Adobe Illustrator 25.4.1, SVG Export Plug-In . SVG Version: 6.00 Build 0)  -->
<svg version="1.1" id="Layer_1" xmlns="http://www.w3.org/2000/svg" xmlns:xlink="http://www.w3.org/1999/xlink" x="0px" y="0px"
	 viewBox="0 0 513.3 513.3" style="enable-background:new 0 0 513.3 513.3;" xml:space="preserve">
<g>
	<path d="M140,256.7c0,6.2,2.5,12.1,6.8,16.5s10.3,6.8,16.5,6.8H280v163.3l0,0c-0.1,18.5-7.4,36.3-20.6,49.4
		c-13.1,13.1-30.9,20.5-49.4,20.6H70c-18.6,0-36.4-7.4-49.5-20.5C7.4,479.7,0,461.9,0,443.3V70c0-18.6,7.4-36.4,20.5-49.5
		C33.6,7.4,51.4,0,70,0h140c18.6,0.1,36.3,7.4,49.4,20.6C272.6,33.7,279.9,51.5,280,70v163.3H163.3l0,0c-6.2,0-12.1,2.5-16.5,6.8
		S140,250.5,140,256.7L140,256.7z"/>
	<path d="M511.5,265.5c0.6-1.7,0.9-3.5,1.1-5.4c0.3-1.1,0.6-2.3,0.7-3.5c-0.1-1.2-0.4-2.4-0.7-3.5c-0.3-4.9-2.5-9.6-6.1-12.9
		l-140-140c-4.3-4.5-10.3-7.1-16.6-7.1c-6.3-0.1-12.3,2.4-16.7,6.8c-4.4,4.4-6.9,10.4-6.8,16.7c0.1,6.3,2.6,12.2,7.1,16.6
		l100.1,100.1H280V280h153.6L333.5,380.2l0,0c-4.5,4.3-7.1,10.3-7.1,16.6c-0.1,6.3,2.4,12.3,6.8,16.7c4.4,4.4,10.4,6.9,16.7,6.8
		c6.3-0.1,12.2-2.6,16.6-7.1l140-140C508.6,271,510.4,268.4,511.5,265.5L511.5,265.5z"/>
</g>
</svg>
