<?xml version="1.0" encoding="utf-8"?>
<!-- Generator: Adobe Illustrator 25.4.1, SVG Export Plug-In . SVG Version: 6.00 Build 0)  -->
<svg version="1.1" id="Layer_1" xmlns="http://www.w3.org/2000/svg" xmlns:xlink="http://www.w3.org/1999/xlink" x="0px" y="0px"
	 viewBox="0 0 526.4 448.1" style="enable-background:new 0 0 526.4 448.1;" xml:space="preserve">
<path d="M290.1,0c-4.8,0.4-9.1,4.4-9.9,9.1c-1,4.8,1.6,9.9,6,12.1c5.2,2.6,8.7,7.5,13.3,13.1C206.8,42.7,129.4,131,123.6,224h-22.8
	v22.4h425.6V224h-22.8C497.9,131,420.5,42.7,327.8,34.3c4.6-5.6,8.1-10.5,13.3-13.1c4.4-2.2,6.9-7.7,5.8-12.5c-1.2-5-6-8.7-10.9-8.7
	L290.1,0z M156.4,263.3c-1,0-1.8,0-2.6,0.2l-70.6,19.2L9.5,294.1C4.2,294.9,0,299.8,0,305v131.8c0,6.3,6.2,11.9,12.5,11.3l95-11.3
	c3.8-0.4,7.1-2.8,8.7-6.2l19.4-38.5H280c2.2-0.2,4.4-0.8,6.2-2c39.5-26.6,79.6-52.6,118.9-79.4c9.7-8.5,11.5-22.4,6-31.4
	c-5.6-8.9-17.5-14.1-28.6-9.9c-31.9,13.7-63.9,27.4-95.8,41.1c-18.5,0.8-33.9,0.6-46.8,0l31.9-8.5c0.2,0,0.4,0,0.4-0.2
	c10.3-3.2,16.3-12.9,16.3-22c0-9.1-6.3-19-16.7-21.8c-38.1,0.6-77,3.4-115.3,5.2L156.4,263.3z M264.3,279c2-0.2,3.4,1.4,1.6,3.2
	l-84.1,20.6c-4.4,1-7.9,5.6-8.1,10.1c-0.2,4.6,2.6,9.3,6.9,10.9c0,0,8.9,3.6,26.2,6c17.1,2.6,43.7,4.8,82.1,3.2c1.4,0,2.8-0.2,4-0.8
	l96-42.1c4-0.4,3.4,3.4,2.4,4l-114.9,75.6H128.8c-4.2,0-8.1,2.4-9.9,6.2l-6,11.9l-11.3-86.9l57.1-15.3L264.3,279z"/>
</svg>
