<?xml version="1.0" encoding="utf-8"?>
<!-- Generator: Adobe Illustrator 25.2.0, SVG Export Plug-In . SVG Version: 6.00 Build 0)  -->
<svg version="1.1" id="Layer_1" xmlns="http://www.w3.org/2000/svg" xmlns:xlink="http://www.w3.org/1999/xlink" x="0px" y="0px"
	 viewBox="0 0 445.6 445.6" style="enable-background:new 0 0 445.6 445.6;" xml:space="preserve">
<symbol  id="a" viewBox="-12.1 -12.6 24.2 25.1">
	<path d="M0.4,1.2c-1.6,0-2.8,0.3-3.6,0.8C-4,2.5-4.4,3.3-4.4,4.4c0,1,0.3,1.7,1,2.3c0.6,0.5,1.5,0.8,2.7,0.8c1.4,0,2.6-0.5,3.6-1.5
		c1-1,1.5-2.3,1.5-3.9V1.2L0.4,1.2z M12.1-1.7v13.7H4.4V8.4c-1,1.4-2.2,2.5-3.5,3.2c-1.3,0.7-2.8,1-4.7,1c-2.5,0-4.5-0.7-6-2.2
		c-1.5-1.4-2.3-3.3-2.3-5.6c0-2.8,1-4.9,2.9-6.2c1.9-1.3,5-2,9.1-2h4.5V-4c0-1.2-0.5-2.1-1.4-2.7C2-7.2,0.5-7.5-1.5-7.5
		c-1.6,0-3.2,0.2-4.6,0.5C-7.5-6.7-8.8-6.2-10-5.5v-5.8c1.6-0.4,3.3-0.7,4.9-0.9c1.7-0.2,3.3-0.3,5-0.3c4.3,0,7.4,0.9,9.3,2.6
		C11.1-8.3,12.1-5.5,12.1-1.7L12.1-1.7z"/>
</symbol>
<path d="M441.7,423.1L326.3,310.2c29.2-33,47.1-76.2,47.1-123.6C373.4,83.7,289.6,0,186.7,0C83.7,0,0,83.7,0,186.7
	c0,103,83.7,186.7,186.7,186.7c46.1,0,88.3-16.9,120.9-44.7l115.8,113.2c2.6,2.5,5.9,3.7,9.2,3.7c3.4,0,6.8-1.3,9.4-3.9
	C447,436.5,446.9,428.2,441.7,423.1L441.7,423.1z M26.3,186.7c0-88.5,72-160.4,160.4-160.4c88.5,0,160.4,72,160.4,160.4
	c0,88.5-72,160.4-160.4,160.4C98.2,347.1,26.3,275.2,26.3,186.7z"/>
<g>
	<defs>
		<rect id="SVGID_1_" x="524.2" y="634.1" width="700" height="700"/>
	</defs>
	<clipPath id="SVGID_2_">
		<use xlink:href="#SVGID_1_"  style="overflow:visible;"/>
	</clipPath>
	<g style="clip-path:url(#SVGID_2_);">
		
			<use xlink:href="#a"  width="24.2" height="25.1" x="-12.1" y="-12.6" transform="matrix(1 0 0 1 538.1754 622.1319)" style="overflow:visible;"/>
	</g>
</g>
</svg>
