<?xml version="1.0" encoding="utf-8"?>
<!-- Generator: Adobe Illustrator 25.4.1, SVG Export Plug-In . SVG Version: 6.00 Build 0)  -->
<svg version="1.1" id="Layer_1" xmlns="http://www.w3.org/2000/svg" xmlns:xlink="http://www.w3.org/1999/xlink" x="0px" y="0px"
	 viewBox="0 0 560.1 559.9" style="enable-background:new 0 0 560.1 559.9;" xml:space="preserve">
<path d="M552.7,162c-8.7-20.2-32.8-35.6-53.6-34.1c-20.8,1.5-44.8-6.7-55.4-16.8s-19.3-34.1-18.5-55c0.8-20.9-15.3-44.3-35.8-52.5
	c-20.6-8.2-48.3-2-62,13.7c-13.7,15.6-36.6,27.1-51.1,27.6c-14.6,0.4-37.7-10.5-51.9-25.7C210.2,3.9,182.2-1.5,162,7.2
	S126.3,40,127.8,60.8c1.5,20.8-6.7,44.8-16.8,55.4s-34.1,19.2-54.9,18.5C35.3,134,11.8,150,3.6,170.6c-8.2,20.6-2,48.3,13.7,62
	c15.6,13.7,27.1,36.6,27.6,51.1s-10.4,37.7-25.7,51.9S-1.7,377.6,7.2,398c8.8,20.3,32.8,35.7,53.6,34.2c20.8-1.5,44.8,6.7,55.4,16.8
	s19.3,34,18.5,54.9c-0.8,20.9,15.3,44.3,35.9,52.5c20.6,8.2,48.3,2,62-13.7c13.7-15.6,36.5-27.1,51.1-27.3s37.7,10.6,52,25.8
	c14.2,15.2,42.2,20.4,62.4,11.7c20.2-8.7,35.7-32.7,34.2-53.5s6.7-44.8,16.8-55.4c10.1-10.6,34-19.1,54.9-18.3
	c20.9,0.8,44.3-15.3,52.5-35.9c8.2-20.6,2.1-48.3-13.7-62.1c-15.7-13.8-27.2-36.4-27.6-51.1c-0.4-14.7,10.5-37.7,25.8-51.9
	c7.6-8.3,12.8-18.6,14.9-29.7C558,183.9,556.8,172.5,552.7,162L552.7,162z M323.1,380c-26.5,11.5-56.5,11.9-83.4,1.3
	c-26.9-10.7-48.4-31.6-59.9-58.1c-11.5-26.5-11.9-56.6-1.2-83.4c10.7-26.9,31.6-48.4,58.1-59.8c26.5-11.4,56.6-11.9,83.4-1.2
	c26.9,10.7,48.4,31.6,59.8,58.2c11.4,26.5,11.9,56.5,1.3,83.3c-10.6,26.8-31.5,48.4-57.9,59.8L323.1,380z"/>
</svg>
